# xmcd
#
# Track frame offsets: 
#        150
#        18390
#        34075
#        51429
#        64077
#        79680
#        91290
#        107451
#        129206
#        142164
#        157028
#
# Disc length: 2293 seconds
#
# Revision: 0
# Processed by: cddbd v1.5.2PL0 Copyright (c) Steve Scherf et al.
# Submitted via: ExactAudioCopy v1.0b2
#
DISCID=8d08f30b
DTITLE=Jon Byrd - Byrd's Auto Parts
DYEAR=2007
DGENRE=Country
TTITLE0=Jackknife
TTITLE1=Reputation
TTITLE2=In a Perfect World
TTITLE3=Freightliner Fever
TTITLE4=Don't Let Me Down
TTITLE5=Be Real
TTITLE6=Stay
TTITLE7=(when You're On The) Losing End
TTITLE8=Mark My Word
TTITLE9=One Final Round
TTITLE10=Blistered
EXTD=
EXTT0=
EXTT1=
EXTT2=
EXTT3=
EXTT4=
EXTT5=
EXTT6=
EXTT7=
EXTT8=
EXTT9=
EXTT10=
PLAYORDER=
